<svg width="917" height="652" xmlns="http://www.w3.org/2000/svg" xmlns:xlink="http://www.w3.org/1999/xlink">
 <defs>
  <linearGradient id="imagebot_46">
   <stop stop-color="#0e0e0e" offset="0" id="imagebot_53"/>
   <stop stop-color="#c7c7c7" offset="0.7651" id="imagebot_52"/>
   <stop stop-color="#151515" offset="1" id="imagebot_51"/>
  </linearGradient>
  <linearGradient id="imagebot_45">
   <stop stop-color="#0e0e0e" offset="0" id="imagebot_50"/>
   <stop stop-color="#8b8b8b" offset="1" id="imagebot_49"/>
  </linearGradient>
  <linearGradient x1="-0.00095" y1="1.06644" x2="0.2246" y2="-0.27723" id="imagebot_40">
   <stop stop-color="#171717" offset="0" id="imagebot_48"/>
   <stop stop-color="#a7a7a7" offset="1" id="imagebot_47"/>
  </linearGradient>
  <linearGradient x1="0" y1="0.50003" x2="1" xlink:href="#imagebot_45" y2="0.50003" id="imagebot_38"/>
  <linearGradient x1="0.3605" y1="0.6631" x2="0.63387" xlink:href="#imagebot_46" y2="0.36159" id="imagebot_34"/>
  <linearGradient x1="-0.01682" y1="0.50002" x2="1.01682" xlink:href="#imagebot_45" y2="0.50002" id="imagebot_32"/>
  <linearGradient x1="-0.01681" y1="0.5" x2="1.01682" xlink:href="#imagebot_46" y2="0.5" id="imagebot_30"/>
  <linearGradient x1="-0.01682" y1="0.50002" x2="1.01682" xlink:href="#imagebot_45" y2="0.50002" id="imagebot_28"/>
  <linearGradient x1="-0.01681" y1="0.5" x2="1.01682" xlink:href="#imagebot_46" y2="0.5" id="imagebot_26"/>
  <linearGradient x1="-0.01682" y1="0.50002" x2="1.01682" xlink:href="#imagebot_45" y2="0.50002" id="imagebot_24"/>
  <linearGradient x1="-0.01681" y1="0.5" x2="1.01682" xlink:href="#imagebot_46" y2="0.5" id="imagebot_22"/>
  <linearGradient x1="0.17033" y1="0.77231" x2="1.18757" xlink:href="#imagebot_45" y2="-0.05949" id="imagebot_19"/>
  <linearGradient x1="0.17041" y1="0.77226" x2="1.18765" xlink:href="#imagebot_45" y2="-0.05954" id="imagebot_17"/>
  <linearGradient x1="0" y1="0.50003" x2="1" xlink:href="#imagebot_45" y2="0.50003" id="imagebot_14"/>
  <linearGradient x1="-0.07987" y1="0.0559" x2="0.92" y2="0.71139" id="imagebot_11">
   <stop stop-color="#525252" offset="0" id="imagebot_44"/>
   <stop stop-color="#e8e8e8" offset="1" id="imagebot_43"/>
  </linearGradient>
  <linearGradient x1="-0.023" y1="0.1088" x2="0.91632" y2="0.91292" id="imagebot_7">
   <stop stop-color="#fffc0d" stop-opacity="0.54587" offset="0" id="imagebot_42"/>
   <stop stop-color="#fffc0d" stop-opacity="0" offset="1" id="imagebot_41"/>
  </linearGradient>
 </defs>
 <g label="Layer 1" id="imagebot_3">
  <rect transform="matrix(1 0 0 1 -54.153 -38.412)" label="Layer 1" fill-rule="evenodd" fill="url(#imagebot_40)" x="54.15304" y="37.74106" width="914.68067" height="650.08161" id="imagebot_39"/>
  <g label="Layer 1" transform="matrix(1.6771 0 0 1.6771 -126.243 -251.632)" id="imagebot_9">
   <path stroke-linejoin="round" fill-rule="evenodd" stroke="#0a0a0a" stroke-linecap="round" stroke-width="0.65125" fill="url(#imagebot_38)" d="M138.09,151.12L138.09,195.81L138.22,195.81C138.4,197.5 139.17,199.36 140.41,200.91C142.61,203.66 145.49,204.34 146.88,202.44C147.37,201.76 147.6,200.84 147.59,199.81L147.66,199.81L147.66,151.12L138.09,151.12z" id="imagebot_37"/>
   <path opacity="0.57949" fill-rule="evenodd" fill="#b6b6b6" transform="matrix(.17961 .22414 -.1711 .23529 158.82 124.83)" d="M129.55,195.58C129.55,199.0668 125.2535,201.8934 119.9536,201.8934C114.6536,201.8934 110.3572,199.0668 110.3572,195.58S114.6537,189.2666 119.9536,189.2666C125.2536,189.2666 129.55,192.0932 129.55,195.58z" id="imagebot_36"/>
   <path stroke-linejoin="round" fill-rule="evenodd" stroke="#000000" stroke-linecap="round" stroke-width="2" fill="#232323" d="M103.04,193.31C101.94,188.48 101.68,185.14 103.44,181.05C105.45,176.38 109.06,172.78 113.16,170.12C117.35,167.4 120.16,164.79 125.19,165.48C130.46,166.19 130.46,166.76 133.96,170.34C137.13,173.57 140.94,179.62 143.51,182.46C148.53,187.26 153.56,192.05 158.59,196.84C155.53,196.58 142.77,199.97 139.01,202.16C131.66,210.43 129.63,211.77 126.76,219.47C118.26,210.5 103.45,196.22 103.04,193.31z" id="imagebot_35"/>
   <path opacity="0.8" fill-rule="evenodd" fill="url(#imagebot_34)" d="M122.1,166.59L153.07,197.14C146.78,198.61 142.35,199.95 139.01,202.51L111.09,171.79C112.76,171 115.42,168.46 116.5,167.79C117.59,167.11 118.53,167.21 119.84,166.73C120.87,166.35 120.75,166.67 122.1,166.59z" id="imagebot_33"/>
   <path opacity="0.57949" stroke="url(#imagebot_32)" stroke-width="1px" fill="none" d="M114.4,206.44C114.42,197.14 118.96,192.2 121.59,190.01C127.37,185.18 137.04,180.94 144.13,183.44" id="imagebot_31"/>
   <path stroke="url(#imagebot_30)" stroke-width="1px" fill="none" d="M115.41,206.95C115.43,197.65 119.97,192.71 122.6,190.52C128.38,185.69 138.05,181.44 145.14,183.94" id="imagebot_29"/>
   <path opacity="0.57949" stroke="url(#imagebot_28)" stroke-width="1px" fill="none" d="M116.4,208.44C116.42,199.14 120.96,194.2 123.59,192.01C129.37,187.18 139.04,182.94 146.13,185.44" id="imagebot_27"/>
   <path stroke="url(#imagebot_26)" stroke-width="1px" fill="none" d="M117.41,208.95C117.43,199.65 121.97,194.71 124.6,192.52C130.38,187.69 140.05,183.44 147.14,185.94" id="imagebot_25"/>
   <path opacity="0.57949" stroke="url(#imagebot_24)" stroke-width="1px" fill="none" d="M112.4,204.44C112.42,195.14 116.96,190.2 119.59,188.01C125.37,183.18 135.04,178.94 142.13,181.44" id="imagebot_23"/>
   <path stroke="url(#imagebot_22)" stroke-width="1px" fill="none" d="M113.41,204.95C113.43,195.65 117.97,190.71 120.6,188.52C126.38,183.69 136.05,179.44 143.14,181.94" id="imagebot_21"/>
   <path stroke-linejoin="round" stroke="#000000" stroke-width="2" stroke-linecap="round" fill="none" d="M103.04,193.31C101.94,188.48 101.68,185.14 103.44,181.05C105.45,176.38 109.06,172.78 113.16,170.12C117.35,167.4 120.16,164.79 125.19,165.48C130.46,166.19 130.46,166.76 133.96,170.34C137.13,173.57 140.94,179.62 143.51,182.46C148.53,187.26 153.56,192.05 158.59,196.84C155.53,196.58 142.77,199.97 139.01,202.16C131.66,210.43 129.63,211.77 126.76,219.47C118.26,210.5 103.45,196.22 103.04,193.31z" id="imagebot_20"/>
   <path stroke-linejoin="round" fill-rule="evenodd" stroke="#d4d4d4" stroke-linecap="round" stroke-width="2" fill="url(#imagebot_19)" d="M128.04,197.17L174.76,188.51L161.12,230.25L116.93,241.54L128.04,197.17z" id="imagebot_18"/>
   <path stroke-linejoin="round" fill-rule="evenodd" stroke="#000000" stroke-linecap="round" stroke-width="2" fill="url(#imagebot_17)" d="M128.54,197.93L175.26,189.27L161.62,231.01L117.43,242.3L128.54,197.93z" id="imagebot_16"/>
   <path fill-rule="evenodd" fill="#ababab" transform="matrix(.72099 -1.1438 1.0729 .22128 -147.76 287.48)" d="M116.42,204.55C116.42,211.0355 110.258,216.293 102.657,216.293C95.0557,216.293 88.894,211.0355 88.894,204.55S95.0561,192.807 102.657,192.807C110.2583,192.807 116.42,198.0645 116.42,204.55z" id="imagebot_15"/>
   <path stroke-linejoin="round" fill-rule="evenodd" stroke="#0a0a0a" stroke-linecap="round" stroke-width="0.65125" fill="url(#imagebot_14)" d="M110.09,151.12L110.09,195.81L110.22,195.81C110.4,197.5 111.17,199.36 112.41,200.91C114.61,203.66 117.49,204.34 118.88,202.44C119.37,201.76 119.6,200.84 119.59,199.81L119.66,199.81L119.66,151.12L110.09,151.12z" id="imagebot_13"/>
   <path opacity="0.57949" fill-rule="evenodd" fill="#b6b6b6" transform="matrix(.17961 .22414 -.1711 .23529 126.82 124.83)" d="M129.55,195.58C129.55,199.0668 125.2535,201.8934 119.9536,201.8934C114.6536,201.8934 110.3572,199.0668 110.3572,195.58S114.6537,189.2666 119.9536,189.2666C125.2536,189.2666 129.55,192.0932 129.55,195.58z" id="imagebot_12"/>
   <path opacity="0.86667" stroke-linejoin="round" fill-rule="evenodd" stroke="url(#imagebot_11)" stroke-linecap="round" stroke-width="1.4861" fill="#ababab" d="M115.43,208.91C112.6033,214.9304 104.592,217.8558 97.536,215.444C92.6574,213.7765 89.3176,209.8842 88.9286,205.412" transform="matrix(.72099 -1.1438 1.0729 .22128 -147.76 287.48)" id="imagebot_10"/>
  </g>
  <path label="Layer 1" fill-rule="evenodd" fill="#fffc0d" transform="matrix(2.6444 0 0 1.9825 -700.113 719.368)" d="M579.83,-127.67C579.83,-95.87 539.127,-70.091 488.916,-70.091C438.706,-70.091 398.002,-95.87 398.002,-127.67S438.705,-185.249 488.916,-185.249C539.126,-185.249 579.83,-159.47 579.83,-127.67z" id="imagebot_8"/>
  <path font-size="4" transform="translate(0 1.95313) matrix(1 0 0 1 -54.153 -38.412)" label="Layer 1" fill-rule="evenodd" fill="url(#imagebot_7)" d="M414.41,533.78C451.52,583.34 471.1,584.83 530.15,604.29C584.85,622.32 655.69,618.28 710.67,614.01C767.47,609.59 837.82,581.7 869.64,547.36C905.18,509 878.96,450.8 826.5,428C664.77,348.25 356.14,182.37 194.37,124.54C173.58,117.11 131.88,149.52 155.26,179.06C187.65,228.13 403.3,513.01 414.41,533.78z" id="imagebot_6">In the Spotlight</path>
  <title>Layer 1</title>
  <text transform="translate(866.258 190.066) matrix(44.269 0 0 8.38186 -33263.8 -1378.31)" xml:space="preserve" text-anchor="middle" font-family="serif" font-size="24" id="imagebot_55" y="186.35155" x="744.63281" stroke-opacity="null" stroke-linecap="null" stroke-linejoin="null" stroke-dasharray="null" stroke-width="0" stroke="null" fill="#000000"/>
 </g>
 <metadata id="imagebot_2">image/svg+xmlOpenclipart</metadata>
</svg>